# xmcd
#
# Track frame offsets:
#	150
#	12063
#	26662
#	39379
#	52534
#	60625
#	72135
#	83437
#	97729
#	107613
#	122683
#	135452
#	147714
#	160681
#	174728
#	186906
#	198839
#	212255
#	223477
#	235533
#	249533
#	262771
#	276479
#	290951
#	306075
#	318410
#
# Disc length: 4434 seconds
#
# Revision: 6
# Processed by: cddbd v1.5.1PL2 Copyright (c) Steve Scherf et al.
# Submitted via: EasyCDDAExtractor 9.0.0.1
#
DISCID=6911501a
DTITLE=Merle Haggard - Down Every Road Cd 3
DYEAR=1996
DGENRE=Country
TTITLE0=Right Or Wrong
TTITLE1=Trouble In Mind
TTITLE2=Stay A Little Longer
TTITLE3=The Farmer's Daughter
TTITLE4=Tulare Dust
TTITLE5=Carolyn
TTITLE6=Someday We'll Look Back
TTITLE7=Daddy Frank (The Guitar Man)
TTITLE8=Grandma Harp
TTITLE9=It's Not Love (But It's Not Bad)
TTITLE10=I Wonder If They Ever Think Of Me
TTITLE11=If We Make It Thought December
TTITLE12=The Emptiest Arms In The World
TTITLE13=Everybody's Had The Blues
TTITLE14=Things Aren't Funny Anymore
TTITLE15=Honky Tonk Night Time Man
TTITLE16=Holding Things Together
TTITLE17=Here In Frisco
TTITLE18=Kentucky Gambler
TTITLE19=Always Wanting You
TTITLE20=Living With The Shades Pulled Down
TTITLE21=Running Kind
TTITLE22=It's All In The Movies
TTITLE23=The Way It Was In '51
TTITLE24=I Never Go Around Mirrors
TTITLE25=What Have You Got Planned Tonight Diana
EXTD=Capitol 35714-2-0
EXTT0=
EXTT1=
EXTT2=
EXTT3=
EXTT4=
EXTT5=
EXTT6=
EXTT7=
EXTT8=
EXTT9=
EXTT10=
EXTT11=
EXTT12=
EXTT13=
EXTT14=
EXTT15=
EXTT16=
EXTT17=
EXTT18=
EXTT19=
EXTT20=
EXTT21=
EXTT22=
EXTT23=
EXTT24=
EXTT25=
PLAYORDER=
